<svg width="100" height="100" viewBox="0 0 100 100" fill="none" xmlns="http://www.w3.org/2000/svg">
<rect x="3" y="3" width="94" height="94" rx="17" stroke="#424A73" stroke-width="6"/>
<path d="M66.188 38.875C64.738 35.825 62.638 33.475 59.888 31.825C57.138 30.125 53.938 29.275 50.288 29.275C46.638 29.275 43.338 30.125 40.388 31.825C37.488 33.475 35.188 35.875 33.488 39.025C31.838 42.125 31.013 45.725 31.013 49.825C31.013 53.925 31.838 57.525 33.488 60.625C35.188 63.725 37.488 66.125 40.388 67.825C43.338 69.475 46.638 70.3 50.288 70.3C55.388 70.3 59.588 68.775 62.888 65.725C66.188 62.675 68.113 58.55 68.663 53.35H47.813V47.8H75.938V53.05C75.538 57.35 74.188 61.3 71.888 64.9C69.588 68.45 66.563 71.275 62.813 73.375C59.063 75.425 54.888 76.45 50.288 76.45C45.438 76.45 41.013 75.325 37.013 73.075C33.013 70.775 29.838 67.6 27.488 63.55C25.188 59.5 24.038 54.925 24.038 49.825C24.038 44.725 25.188 40.15 27.488 36.1C29.838 32 33.013 28.825 37.013 26.575C41.013 24.275 45.438 23.125 50.288 23.125C55.838 23.125 60.738 24.5 64.988 27.25C69.288 30 72.413 33.875 74.363 38.875H66.188Z" fill="#5566BD"/>
</svg>
