<svg width="500" height="500" viewBox="0 0 500 500" fill="none" xmlns="http://www.w3.org/2000/svg">
<path d="M209.217 107.337C206.665 110.554 201.48 108.792 201.423 104.684L200.52 44.6008H240.922C248.238 44.6008 252.318 53.0516 247.768 58.7797L209.217 107.337Z" fill="url(#paint0_linear_3_101)"/>
<path d="M209.217 107.337C206.665 110.554 201.48 108.792 201.423 104.684L200.52 44.6008H240.922C248.238 44.6008 252.318 53.0516 247.768 58.7797L209.217 107.337Z" fill="url(#paint1_linear_3_101)" fill-opacity="0.2"/>
<path d="M192.784 10.6625C195.337 7.44609 200.523 9.20781 200.579 13.3156L200.976 73.3992H161.08C153.763 73.3992 149.684 64.9484 154.233 59.2203L192.784 10.6625Z" fill="#3ECF8E"/>
<path d="M465.385 175H388.873L375.003 189.095V249.836H461.125L474.996 235.742V175H465.385Z" fill="#41CD52"/>
<path d="M412.287 188.09C418.796 188.09 423.363 189.961 425.953 193.735C428.578 197.475 429.873 203.258 429.873 211.085C429.873 216.245 429.328 220.4 428.271 223.552C427.18 226.738 425.443 229.163 422.988 230.825L428.271 239.517L421.761 242.599L416.138 233.214C415.32 233.456 414.059 233.595 412.287 233.595C405.709 233.595 401.109 231.794 398.518 228.192C395.928 224.591 394.633 218.877 394.633 211.119C394.633 203.327 395.962 197.545 398.586 193.77C401.211 189.995 405.778 188.09 412.287 188.09ZM445.482 190.584V199.934H454.207V205.925H445.482V220.089C445.482 222.721 445.686 224.452 446.061 225.284C446.436 226.149 447.425 226.565 448.958 226.565L454.138 226.357L454.445 231.967C451.651 232.521 449.503 232.799 448.004 232.799C444.426 232.799 441.972 231.967 440.642 230.305C439.313 228.643 438.632 225.491 438.632 220.851V205.891H433.792V199.934H438.632V190.584H445.482ZM412.412 193.875C408.467 193.875 405.747 195.214 404.25 197.927C402.788 200.64 402.04 204.938 402.04 210.893C402.04 216.812 402.754 221.075 404.182 223.612C405.611 226.149 408.365 227.452 412.412 227.452C416.459 227.452 419.179 226.184 420.607 223.682C422.002 221.18 422.716 216.917 422.716 210.963C422.716 204.973 422.002 200.64 420.539 197.927C419.077 195.214 416.357 193.875 412.412 193.875Z" fill="white"/>
<path d="M205.317 273.379C204.122 272.969 202.917 272.589 201.703 272.24C201.907 271.406 202.095 270.583 202.261 269.774C204.997 256.493 203.209 245.794 197.1 242.271C191.242 238.894 181.663 242.415 171.988 250.835C171.035 251.666 170.102 252.522 169.192 253.4C168.583 252.816 167.963 252.243 167.332 251.682C157.193 242.679 147.029 238.885 140.927 242.418C135.075 245.806 133.342 255.864 135.805 268.451C136.05 269.697 136.327 270.938 136.635 272.17C135.196 272.579 133.808 273.014 132.479 273.477C120.592 277.622 113 284.117 113 290.854C113 297.813 121.15 304.792 133.532 309.024C134.535 309.366 135.548 309.682 136.567 309.974C136.236 311.301 135.942 312.638 135.686 313.981C133.337 326.35 135.171 336.171 141.007 339.537C147.036 343.013 157.153 339.44 167.004 330.828C167.803 330.128 168.584 329.408 169.347 328.669C170.333 329.62 171.345 330.544 172.382 331.439C181.925 339.65 191.35 342.966 197.181 339.59C203.203 336.104 205.161 325.554 202.619 312.718C202.419 311.713 202.195 310.712 201.946 309.717C202.657 309.507 203.354 309.29 204.034 309.065C216.906 304.8 225.281 297.906 225.281 290.854C225.281 284.092 217.444 277.553 205.317 273.379ZM202.525 304.512C201.911 304.715 201.282 304.911 200.639 305.102C199.218 300.603 197.301 295.82 194.954 290.878C197.193 286.053 199.037 281.331 200.418 276.861C201.567 277.194 202.682 277.544 203.756 277.914C214.146 281.491 220.484 286.779 220.484 290.854C220.484 295.195 213.639 300.829 202.525 304.512ZM197.914 313.65C199.038 319.325 199.198 324.457 198.454 328.469C197.785 332.074 196.44 334.477 194.777 335.439C191.239 337.488 183.672 334.825 175.511 327.803C174.546 326.971 173.605 326.112 172.688 325.228C175.852 321.768 179.014 317.746 182.1 313.278C187.528 312.796 192.656 312.009 197.306 310.934C197.53 311.834 197.733 312.74 197.914 313.65ZM151.279 335.085C147.822 336.306 145.068 336.341 143.404 335.381C139.862 333.339 138.39 325.453 140.398 314.876C140.637 313.626 140.91 312.383 141.218 311.149C145.817 312.166 150.908 312.898 156.349 313.339C159.456 317.71 162.709 321.728 165.987 325.247C165.291 325.921 164.577 326.578 163.848 327.217C159.492 331.025 155.126 333.727 151.279 335.085ZM135.083 304.485C129.608 302.614 125.087 300.182 121.988 297.528C119.203 295.143 117.797 292.775 117.797 290.854C117.797 286.766 123.892 281.551 134.058 278.006C135.292 277.577 136.583 277.171 137.923 276.79C139.329 281.36 141.171 286.139 143.396 290.971C141.143 295.874 139.273 300.729 137.854 305.353C136.924 305.087 136 304.797 135.083 304.485ZM140.512 267.529C138.402 256.746 139.804 248.611 143.33 246.569C147.086 244.395 155.393 247.495 164.147 255.269C164.718 255.777 165.28 256.295 165.832 256.824C162.57 260.327 159.346 264.315 156.267 268.66C150.986 269.15 145.932 269.936 141.284 270.989C140.998 269.843 140.74 268.689 140.512 267.529ZM188.945 279.489C187.847 277.593 186.709 275.721 185.531 273.874C189.113 274.327 192.546 274.928 195.769 275.663C194.801 278.765 193.595 282.007 192.175 285.332C191.138 283.363 190.061 281.415 188.945 279.489ZM169.194 260.252C171.407 262.649 173.622 265.324 175.802 268.228C171.381 268.019 166.952 268.018 162.531 268.225C164.713 265.349 166.947 262.676 169.194 260.252ZM149.317 279.522C148.215 281.432 147.158 283.368 146.147 285.328C144.75 282.015 143.555 278.758 142.579 275.612C145.783 274.896 149.199 274.31 152.759 273.865C151.567 275.723 150.42 277.61 149.317 279.522ZM152.861 308.185C149.183 307.774 145.716 307.219 142.513 306.521C143.504 303.32 144.726 299.993 146.153 296.609C147.168 298.57 148.229 300.507 149.336 302.419C150.473 304.384 151.651 306.308 152.861 308.185ZM169.327 321.795C167.053 319.342 164.786 316.628 162.571 313.71C164.721 313.794 166.913 313.837 169.14 313.837C171.429 313.837 173.691 313.786 175.918 313.687C173.732 316.658 171.524 319.375 169.327 321.795ZM192.221 296.436C193.721 299.857 194.986 303.167 195.991 306.314C192.736 307.056 189.221 307.655 185.517 308.099C186.704 306.218 187.853 304.313 188.964 302.386C190.094 300.427 191.179 298.443 192.221 296.436ZM184.809 299.989C183.108 302.944 181.312 305.842 179.423 308.68C176.001 308.923 172.571 309.043 169.14 309.041C165.646 309.041 162.247 308.932 158.975 308.72C157.036 305.889 155.205 302.985 153.486 300.016C151.776 297.062 150.178 294.044 148.696 290.969C150.174 287.893 151.767 284.874 153.472 281.917L153.472 281.918C155.176 278.961 156.992 276.07 158.916 273.251C162.255 272.998 165.679 272.867 169.14 272.867C172.616 272.867 176.045 272.999 179.383 273.254C181.288 276.069 183.092 278.95 184.793 281.892C186.504 284.842 188.118 287.846 189.634 290.901C188.134 293.987 186.525 297.018 184.809 299.989ZM194.704 246.426C198.464 248.595 199.926 257.339 197.564 268.806C197.413 269.538 197.243 270.283 197.059 271.039C192.4 269.963 187.342 269.164 182.046 268.667C178.961 264.273 175.764 260.279 172.555 256.821C173.396 256.01 174.257 255.221 175.137 254.453C183.427 247.239 191.174 244.391 194.704 246.426ZM169.14 280.828C174.678 280.828 179.167 285.317 179.167 290.854C179.167 296.392 174.678 300.881 169.14 300.881C163.603 300.881 159.114 296.392 159.114 290.854C159.114 285.317 163.603 280.828 169.14 280.828Z" fill="#00D8FF"/>
<path fill-rule="evenodd" clip-rule="evenodd" d="M243.78 158.447C245.034 162.074 245.937 165.777 246.234 169.616C246.602 174.377 246.434 179.105 245.43 183.789C245.402 183.918 245.345 184.039 245.302 184.164C244.987 184.165 244.666 184.126 244.358 184.173C241.757 184.582 239.159 185.005 236.56 185.427C233.874 185.862 231.184 186.28 228.503 186.745C227.553 186.909 226.377 186.713 225.994 188.027C225.983 188.063 225.873 188.069 225.81 188.089L225.94 180.237L225.808 161.29L227.059 161.075C229.106 160.74 231.153 160.4 233.202 160.074C235.646 159.686 238.093 159.309 240.539 158.93C241.618 158.762 242.698 158.608 243.78 158.447Z" fill="#439934"/>
<path fill-rule="evenodd" clip-rule="evenodd" d="M223.226 210.98C221.905 209.845 220.539 208.759 219.273 207.566C212.463 201.142 207.482 193.582 205.029 184.467C204.353 181.959 203.902 179.409 203.758 176.817C203.656 175.003 203.509 173.173 203.638 171.368C203.979 166.568 204.673 161.814 206.08 157.191L206.158 157.083C206.295 157.265 206.491 157.426 206.561 157.631C207.935 161.678 209.299 165.728 210.656 169.781C214.92 182.515 219.179 195.252 223.45 207.984C223.534 208.232 223.75 208.436 223.905 208.66L223.226 210.98Z" fill="#45A538"/>
<path fill-rule="evenodd" clip-rule="evenodd" d="M243.78 158.447C242.698 158.608 241.617 158.762 240.538 158.928C238.092 159.307 235.645 159.684 233.201 160.073C231.152 160.398 229.105 160.738 227.059 161.073L225.807 161.288L225.798 160.472C225.756 159.801 225.685 159.131 225.677 158.459C225.623 154.18 225.59 149.9 225.537 145.62C225.504 142.941 225.455 140.263 225.4 137.585C225.366 135.921 225.33 134.256 225.255 132.595C225.215 131.702 225.071 130.813 225.012 129.92C224.98 129.407 225.025 128.89 225.035 128.374C225.673 129.611 226.298 130.857 226.954 132.084C227.991 134.025 229.642 135.455 231.129 137.015C237.006 143.181 241.179 150.349 243.78 158.447Z" fill="#46A037"/>
<path fill-rule="evenodd" clip-rule="evenodd" d="M225.809 188.088C225.873 188.068 225.983 188.062 225.993 188.026C226.377 186.712 227.552 186.908 228.502 186.744C231.184 186.28 233.873 185.861 236.559 185.426C239.158 185.005 241.756 184.581 244.357 184.173C244.665 184.124 244.986 184.164 245.301 184.163C244.815 185.898 244.432 187.67 243.816 189.356C243.116 191.27 242.269 193.137 241.37 194.967C240.023 197.697 238.357 200.258 236.406 202.595C234.907 204.398 233.236 206.064 231.561 207.71C230.635 208.62 229.544 209.362 228.528 210.18L228.265 210L227.316 209.189L226.335 207.038C225.665 204.529 225.299 201.949 225.246 199.352L225.264 198.914L225.398 197.019C225.442 196.372 225.502 195.726 225.529 195.077C225.63 192.748 225.717 190.418 225.809 188.088Z" fill="#409433"/>
<path fill-rule="evenodd" clip-rule="evenodd" d="M225.809 188.088C225.717 190.418 225.63 192.748 225.53 195.078C225.503 195.727 225.444 196.373 225.399 197.02L224.802 197.245C223.474 193.338 222.146 189.471 220.847 185.595C218.698 179.181 216.576 172.758 214.43 166.343C212.698 161.165 210.953 155.992 209.196 150.822C209.114 150.58 208.878 150.391 208.714 150.177L212.539 143.144C212.67 143.372 212.844 143.585 212.927 143.831C214.698 149.067 216.461 154.306 218.214 159.548C220.492 166.368 222.756 173.194 225.033 180.015C225.123 180.288 225.273 180.539 225.416 180.845L225.94 180.235L225.809 188.088Z" fill="#4FAA41"/>
<path fill-rule="evenodd" clip-rule="evenodd" d="M208.715 150.177C208.879 150.391 209.114 150.58 209.197 150.823C210.954 155.992 212.699 161.166 214.431 166.344C216.577 172.759 218.699 179.182 220.848 185.595C222.146 189.471 223.474 193.338 224.802 197.246L225.4 197.02L225.266 198.916L225.145 199.352C224.937 201.427 224.763 203.507 224.509 205.577C224.382 206.615 224.112 207.634 223.906 208.661C223.752 208.437 223.534 208.233 223.451 207.984C219.18 195.252 214.921 182.516 210.657 169.781C209.3 165.729 207.935 161.679 206.562 157.632C206.492 157.427 206.296 157.266 206.159 157.084L208.715 150.177Z" fill="#4AA73C"/>
<path fill-rule="evenodd" clip-rule="evenodd" d="M225.939 180.236L225.416 180.845C225.273 180.54 225.123 180.287 225.032 180.016C222.756 173.195 220.491 166.369 218.213 159.548C216.46 154.306 214.697 149.067 212.926 143.831C212.844 143.586 212.67 143.372 212.538 143.145L217.269 136.922C217.418 137.121 217.63 137.298 217.708 137.523C219.021 141.367 220.323 145.216 221.616 149.068C222.825 152.665 224.016 156.267 225.238 159.859C225.32 160.1 225.605 160.27 225.796 160.473L225.805 161.29C225.851 167.604 225.895 173.92 225.939 180.236Z" fill="#57AE47"/>
<path fill-rule="evenodd" clip-rule="evenodd" d="M225.798 160.472C225.607 160.269 225.322 160.098 225.24 159.858C224.017 156.266 222.827 152.663 221.618 149.066C220.324 145.215 219.023 141.366 217.709 137.521C217.632 137.297 217.42 137.12 217.27 136.92C218.809 135.414 220.299 133.854 221.899 132.417C223.322 131.141 224.466 129.772 224.518 127.755C224.52 127.671 224.564 127.588 224.631 127.353L225.037 128.373C225.027 128.89 224.98 129.406 225.014 129.92C225.073 130.813 225.216 131.701 225.257 132.594C225.332 134.255 225.368 135.92 225.402 137.584C225.455 140.263 225.505 142.941 225.538 145.62C225.591 149.899 225.625 154.179 225.679 158.459C225.685 159.131 225.755 159.801 225.798 160.472Z" fill="#60B24F"/>
<path fill-rule="evenodd" clip-rule="evenodd" d="M223.905 208.66C224.11 207.633 224.38 206.613 224.508 205.577C224.762 203.507 224.936 201.427 225.144 199.352L225.195 199.344L225.247 199.352C225.3 201.949 225.666 204.529 226.336 207.038C226.198 207.22 226.004 207.381 225.931 207.586C225.363 209.187 224.828 210.802 224.257 212.403C224.179 212.622 223.962 212.792 223.809 212.984L223.225 210.98L223.905 208.66Z" fill="#A9AA88"/>
<path fill-rule="evenodd" clip-rule="evenodd" d="M223.809 212.985C223.963 212.793 224.18 212.623 224.258 212.404C224.829 210.802 225.365 209.189 225.932 207.587C226.005 207.382 226.198 207.22 226.337 207.039L227.317 209.191C227.123 209.466 226.856 209.713 226.748 210.02L224.87 215.534C224.793 215.755 224.529 215.912 224.352 216.098L223.809 212.985Z" fill="#B6B598"/>
<path fill-rule="evenodd" clip-rule="evenodd" d="M224.352 216.098C224.53 215.912 224.793 215.755 224.87 215.534L226.748 210.019C226.855 209.713 227.123 209.465 227.317 209.19L228.266 210C227.808 210.453 227.553 210.977 227.706 211.638L227.418 212.582C227.287 212.744 227.097 212.884 227.032 213.07C226.377 214.947 225.751 216.834 225.091 218.712C225.007 218.95 224.775 219.137 224.611 219.346C224.526 218.263 224.439 217.181 224.352 216.098Z" fill="#C2C1A7"/>
<path fill-rule="evenodd" clip-rule="evenodd" d="M224.612 219.346C224.775 219.136 225.007 218.949 225.091 218.712C225.752 216.835 226.377 214.948 227.033 213.07C227.098 212.885 227.287 212.744 227.419 212.582L227.021 216.914C226.915 217.037 226.761 217.144 226.71 217.287C226.261 218.548 225.837 219.818 225.387 221.079C225.294 221.339 225.116 221.569 224.977 221.812C224.853 221.65 224.632 221.494 224.622 221.325C224.582 220.668 224.609 220.006 224.612 219.346Z" fill="#CECDB7"/>
<path fill-rule="evenodd" clip-rule="evenodd" d="M224.976 221.812C225.115 221.568 225.293 221.338 225.386 221.079C225.838 219.819 226.26 218.548 226.709 217.287C226.76 217.144 226.915 217.038 227.02 216.914L227.03 219.758L226.078 222.198L224.976 221.812Z" fill="#DBDAC7"/>
<path fill-rule="evenodd" clip-rule="evenodd" d="M226.078 222.199L227.03 219.759L227.226 222.646L226.078 222.199Z" fill="#EBE9DC"/>
<path fill-rule="evenodd" clip-rule="evenodd" d="M227.706 211.639C227.553 210.977 227.807 210.453 228.266 210.001L228.53 210.181L227.706 211.639Z" fill="#CECDB7"/>
<path fill-rule="evenodd" clip-rule="evenodd" d="M225.247 199.353L225.195 199.345L225.144 199.352L225.265 198.916L225.247 199.353Z" fill="#4FAA41"/>
<path d="M285.86 265.304C285.86 265.304 282.046 267.523 288.575 268.273C296.485 269.175 300.528 269.046 309.245 267.396C309.245 267.396 311.537 268.833 314.737 270.078C295.196 278.453 270.512 269.593 285.86 265.304ZM283.472 254.375C283.472 254.375 279.194 257.542 285.728 258.218C294.178 259.09 300.851 259.161 312.398 256.938C312.398 256.938 313.995 258.557 316.506 259.442C292.88 266.351 266.564 259.987 283.472 254.375Z" fill="#5382A1"/>
<path d="M303.603 235.837C308.418 241.38 302.337 246.368 302.337 246.368C302.337 246.368 314.563 240.057 308.948 232.154C303.705 224.784 299.683 221.121 321.454 208.495C321.454 208.495 287.281 217.03 303.603 235.837Z" fill="#E76F00"/>
<path d="M329.447 273.388C329.447 273.388 332.27 275.714 326.338 277.513C315.059 280.93 279.392 281.962 269.484 277.649C265.923 276.1 272.602 273.95 274.703 273.498C276.894 273.023 278.146 273.112 278.146 273.112C274.185 270.321 252.544 278.591 267.154 280.959C306.996 287.42 339.781 278.049 329.447 273.388ZM287.694 243.052C287.694 243.052 269.553 247.361 281.27 248.926C286.218 249.588 296.08 249.438 305.267 248.668C312.775 248.036 320.314 246.689 320.314 246.689C320.314 246.689 317.667 247.823 315.752 249.13C297.329 253.976 261.738 251.722 271.984 246.765C280.649 242.577 287.694 243.052 287.694 243.052ZM320.24 261.243C338.968 251.512 330.309 242.16 324.265 243.42C322.783 243.728 322.123 243.995 322.123 243.995C322.123 243.995 322.673 243.134 323.723 242.761C335.68 238.557 344.875 255.159 319.863 261.734C319.863 261.734 320.153 261.475 320.24 261.243Z" fill="#5382A1"/>
<path d="M308.948 188.107C308.948 188.107 319.32 198.483 299.111 214.437C282.906 227.235 295.416 234.532 299.105 242.87C289.645 234.335 282.703 226.822 287.36 219.829C294.196 209.564 313.133 204.588 308.948 188.107Z" fill="#E76F00"/>
<path d="M289.535 287.614C307.511 288.765 335.116 286.976 335.77 278.47C335.77 278.47 334.514 281.695 320.914 284.255C305.57 287.142 286.646 286.806 275.422 284.955C275.423 284.955 277.72 286.857 289.535 287.614Z" fill="#5382A1"/>
<path d="M17.7219 254H83.5445V287.334H50.6328L17.7219 254ZM17.7219 287.334H50.6328L83.5445 320.666H50.6328V354L17.7219 320.666V287.334Z" fill="url(#paint2_linear_3_101)"/>
<path d="M81 390C67.6673 390 59.334 396.667 56.0009 409.999C61.0008 403.333 66.8337 400.833 73.5003 402.5C77.3037 403.45 80.0223 406.21 83.0316 409.264C87.9337 414.24 93.6069 419.999 105.999 419.999C119.332 419.999 127.665 413.332 130.998 400C125.998 406.666 120.165 409.166 113.499 407.499C109.695 406.549 106.977 403.789 103.967 400.735C99.0653 395.759 93.3921 390 81 390ZM56.0009 419.999C42.6682 419.999 34.335 426.665 31.0019 439.998C36.0017 433.332 41.8347 430.832 48.5012 432.498C52.3046 433.449 55.0232 436.209 58.0325 439.263C62.9347 444.239 68.6079 449.998 81 449.998C94.3327 449.998 102.666 443.331 105.999 429.998C100.999 436.665 95.1663 439.165 88.4997 437.498C84.6963 436.547 81.9777 433.788 78.9684 430.734C74.0663 425.758 68.3931 419.999 56.0009 419.999Z" fill="url(#paint3_linear_3_101)"/>
<path d="M348.521 139.312C351.02 129.266 350.591 118.713 347.284 108.903C343.977 99.0921 337.93 90.4333 329.858 83.95C337.229 79.7121 345.586 77.4904 354.088 77.5083C357.313 77.5083 360.525 77.8208 363.688 78.45L365.021 73.1083C361.422 72.3715 357.757 72.0002 354.083 72C343.78 71.9802 333.686 74.9157 325 80.4583C316.315 74.9171 306.223 71.9817 295.921 72C292.246 72 288.583 72.3708 284.983 73.1083L286.313 78.45C289.477 77.8224 292.695 77.507 295.921 77.5083C304.424 77.4909 312.783 79.7095 320.158 83.9416C313.561 89.2386 308.296 96.0061 304.783 103.703C301.27 111.399 299.608 119.811 299.929 128.265C300.249 136.72 302.544 144.981 306.63 152.39C310.716 159.798 316.479 166.147 323.458 170.929L325.021 172L326.575 170.929C337.508 163.425 345.325 152.179 348.533 139.312H348.521ZM322.25 163.062C315.063 156.856 309.848 148.684 307.245 139.551C304.643 130.419 304.768 120.725 307.604 111.662C310.384 116.281 313.835 120.461 317.842 124.067C319.232 125.32 320.343 126.852 321.102 128.562C321.862 130.273 322.253 132.124 322.25 133.996V163.062ZM325.004 122.825C321.312 120.085 318.025 116.838 315.242 113.179C313.459 110.836 312.493 107.973 312.493 105.029C312.493 102.085 313.459 99.2221 315.242 96.8791C318.023 93.1908 321.316 89.9176 325.021 87.1583C328.771 89.9541 332.092 93.275 334.896 97.0166C336.621 99.3208 337.553 102.122 337.553 105C337.553 107.878 336.621 110.679 334.896 112.983C332.083 116.717 328.752 120.031 325.004 122.825ZM327.75 163.062V133.996C327.748 132.124 328.141 130.272 328.902 128.561C329.663 126.85 330.775 125.319 332.167 124.067C336.173 120.463 339.621 116.282 342.396 111.662C345.228 120.725 345.351 130.418 342.749 139.55C340.147 148.681 334.934 156.854 327.75 163.062Z" fill="url(#paint4_linear_3_101)"/>
<path d="M384.279 430.654C384.279 431.88 384.412 432.873 384.644 433.601C384.938 434.421 385.292 435.218 385.703 435.985C385.869 436.25 385.935 436.515 385.935 436.747C385.935 437.078 385.736 437.409 385.306 437.74L383.22 439.131C382.922 439.329 382.624 439.429 382.359 439.429C382.028 439.429 381.697 439.263 381.365 438.965C380.919 438.486 380.52 437.965 380.174 437.409C379.843 436.846 379.511 436.217 379.147 435.455C376.565 438.501 373.319 440.025 369.413 440.025C366.632 440.025 364.413 439.23 362.79 437.641C361.168 436.051 360.341 433.932 360.341 431.283C360.341 428.469 361.334 426.185 363.354 424.463C365.373 422.741 368.055 421.88 371.466 421.88C372.591 421.88 373.75 421.979 374.975 422.145C376.201 422.311 377.459 422.575 378.783 422.873V420.456C378.783 417.94 378.253 416.185 377.227 415.159C376.167 414.132 374.379 413.635 371.83 413.635C370.671 413.635 369.479 413.768 368.254 414.066C367.029 414.364 365.837 414.728 364.678 415.192C364.148 415.423 363.751 415.556 363.519 415.622C363.287 415.689 363.122 415.721 362.989 415.721C362.526 415.721 362.294 415.39 362.294 414.695V413.072C362.294 412.543 362.36 412.146 362.526 411.914C362.691 411.682 362.989 411.45 363.453 411.219C364.612 410.623 366.002 410.126 367.624 409.728C369.247 409.298 370.969 409.1 372.79 409.1C376.731 409.1 379.611 409.993 381.465 411.781C383.286 413.569 384.214 416.284 384.214 419.927V430.654H384.279ZM370.836 435.687C371.929 435.687 373.055 435.489 374.247 435.091C375.439 434.694 376.499 433.965 377.392 432.972C377.922 432.343 378.32 431.648 378.518 430.853C378.717 430.059 378.849 429.098 378.849 427.972V426.582C377.845 426.337 376.828 426.149 375.803 426.019C374.771 425.888 373.731 425.821 372.691 425.82C370.472 425.82 368.85 426.251 367.757 427.145C366.664 428.039 366.135 429.297 366.135 430.952C366.135 432.508 366.532 433.667 367.36 434.462C368.155 435.29 369.313 435.687 370.836 435.687ZM397.424 439.263C396.828 439.263 396.431 439.164 396.166 438.932C395.901 438.733 395.669 438.27 395.471 437.641L387.69 412.046C387.491 411.384 387.392 410.953 387.392 410.722C387.392 410.192 387.657 409.894 388.187 409.894H391.431C392.06 409.894 392.491 409.993 392.723 410.225C392.987 410.424 393.186 410.887 393.385 411.516L398.947 433.436L404.113 411.516C404.278 410.854 404.477 410.424 404.741 410.225C405.007 410.027 405.47 409.894 406.066 409.894H408.715C409.344 409.894 409.775 409.993 410.039 410.225C410.304 410.424 410.536 410.887 410.668 411.516L415.9 433.701L421.628 411.516C421.826 410.854 422.058 410.424 422.29 410.225C422.555 410.027 422.985 409.894 423.581 409.894H426.661C427.191 409.894 427.489 410.159 427.489 410.722C427.489 410.887 427.455 411.053 427.422 411.251C427.389 411.45 427.323 411.715 427.191 412.08L419.211 437.674C419.012 438.336 418.781 438.767 418.515 438.965C418.25 439.164 417.82 439.296 417.258 439.296H414.41C413.781 439.296 413.35 439.197 413.085 438.965C412.82 438.733 412.589 438.303 412.456 437.641L407.324 416.284L402.225 437.607C402.06 438.27 401.861 438.7 401.596 438.932C401.331 439.164 400.867 439.263 400.272 439.263H397.424ZM439.971 440.157C438.25 440.157 436.528 439.958 434.873 439.561C433.217 439.164 431.926 438.733 431.065 438.237C430.535 437.939 430.17 437.608 430.038 437.31C429.91 437.017 429.842 436.702 429.84 436.382V434.694C429.84 433.999 430.104 433.667 430.601 433.667C430.804 433.668 431.005 433.702 431.197 433.767C431.396 433.833 431.694 433.965 432.025 434.098C433.195 434.612 434.415 435.001 435.667 435.257C436.964 435.52 438.284 435.653 439.607 435.654C441.693 435.654 443.316 435.29 444.442 434.561C445.567 433.833 446.163 432.774 446.163 431.416C446.163 430.489 445.865 429.727 445.269 429.098C444.673 428.469 443.547 427.906 441.925 427.376L437.124 425.887C434.707 425.125 432.919 423.999 431.826 422.509C430.734 421.052 430.171 419.43 430.171 417.708C430.171 416.318 430.469 415.092 431.065 414.033C431.661 412.973 432.455 412.046 433.449 411.318C434.442 410.556 435.568 409.993 436.892 409.596C438.216 409.199 439.607 409.033 441.064 409.033C441.792 409.033 442.554 409.066 443.283 409.166C444.044 409.265 444.74 409.397 445.435 409.53C446.097 409.695 446.726 409.861 447.322 410.06C447.918 410.258 448.382 410.457 448.713 410.655C449.176 410.921 449.507 411.185 449.706 411.483C449.905 411.748 450.004 412.112 450.004 412.576V414.132C450.004 414.827 449.739 415.192 449.242 415.192C448.978 415.192 448.547 415.059 447.985 414.794C446.097 413.933 443.978 413.503 441.627 413.503C439.74 413.503 438.25 413.801 437.223 414.43C436.197 415.059 435.667 416.02 435.667 417.377C435.667 418.304 435.998 419.099 436.66 419.728C437.323 420.357 438.548 420.986 440.303 421.549L445.004 423.039C447.388 423.801 449.11 424.86 450.136 426.217C451.163 427.575 451.66 429.131 451.66 430.853C451.66 432.277 451.361 433.568 450.799 434.694C450.203 435.82 449.408 436.813 448.382 437.608C447.355 438.435 446.13 439.031 444.706 439.462C443.216 439.926 441.66 440.157 439.971 440.157Z" fill="#DFDFDF"/>
<path d="M446.229 456.249C435.336 464.295 419.509 468.566 405.901 468.566C386.829 468.566 369.645 461.513 356.665 449.792C355.639 448.865 356.566 447.607 357.791 448.335C371.83 456.481 389.147 461.414 407.06 461.414C419.145 461.414 432.422 458.898 444.64 453.733C446.461 452.904 448.017 454.925 446.229 456.249ZM450.766 451.083C449.375 449.296 441.561 450.223 438.018 450.653C436.958 450.786 436.793 449.859 437.753 449.163C443.978 444.792 454.209 446.051 455.401 447.508C456.593 448.998 455.07 459.229 449.242 464.129C448.349 464.891 447.488 464.494 447.885 463.5C449.209 460.222 452.156 452.838 450.766 451.083Z" fill="#FF9900"/>
<path d="M274.775 325.028C249.351 325.028 250.938 336.054 250.938 336.054L250.966 347.476H275.228V350.906H241.33C241.33 350.906 225.061 349.061 225.061 374.714C225.061 400.367 239.261 399.458 239.261 399.458H247.735V387.553C247.735 387.553 247.278 373.353 261.709 373.353H285.772C285.772 373.353 299.292 373.572 299.292 360.287V338.322C299.292 338.322 301.345 325.028 274.775 325.028ZM261.397 332.71C261.97 332.709 262.538 332.822 263.068 333.041C263.598 333.26 264.079 333.582 264.484 333.987C264.89 334.392 265.211 334.874 265.43 335.404C265.65 335.933 265.762 336.501 265.762 337.075C265.762 337.648 265.65 338.216 265.43 338.745C265.211 339.275 264.89 339.757 264.484 340.162C264.079 340.567 263.598 340.889 263.068 341.108C262.538 341.327 261.97 341.44 261.397 341.439C260.824 341.44 260.256 341.327 259.726 341.108C259.196 340.889 258.715 340.567 258.309 340.162C257.904 339.757 257.583 339.275 257.363 338.745C257.144 338.216 257.032 337.648 257.032 337.075C257.032 336.501 257.144 335.933 257.363 335.404C257.583 334.874 257.904 334.392 258.309 333.987C258.715 333.582 259.196 333.26 259.726 333.041C260.256 332.822 260.824 332.709 261.397 332.71Z" fill="url(#paint5_linear_3_101)"/>
<path d="M275.497 424.657C300.921 424.657 299.334 413.632 299.334 413.632L299.305 402.209H275.043V398.78H308.942C308.942 398.78 325.211 400.625 325.211 374.971C325.211 349.318 311.011 350.228 311.011 350.228H302.536V362.132C302.536 362.132 302.993 376.332 288.563 376.332H264.499C264.499 376.332 250.98 376.113 250.98 389.398V411.364C250.98 411.364 248.927 424.657 275.496 424.657H275.497ZM288.875 416.976C288.302 416.977 287.734 416.864 287.204 416.645C286.674 416.426 286.193 416.105 285.787 415.699C285.382 415.294 285.061 414.812 284.841 414.283C284.622 413.753 284.51 413.185 284.51 412.612C284.51 412.038 284.622 411.471 284.841 410.941C285.06 410.411 285.382 409.929 285.787 409.524C286.193 409.119 286.674 408.797 287.204 408.578C287.734 408.359 288.302 408.246 288.875 408.247C289.448 408.246 290.016 408.359 290.546 408.578C291.076 408.797 291.557 409.118 291.962 409.524C292.368 409.929 292.689 410.411 292.908 410.94C293.128 411.47 293.24 412.038 293.24 412.611C293.24 413.185 293.128 413.752 292.908 414.282C292.689 414.812 292.368 415.293 291.962 415.699C291.557 416.104 291.076 416.426 290.546 416.645C290.016 416.864 289.448 416.977 288.875 416.976Z" fill="url(#paint6_linear_3_101)"/>
<path d="M80 155L82.7 153.047C82.287 152.476 81.7039 152.051 81.0344 151.833C80.3649 151.614 79.6433 151.613 78.9733 151.83C78.3032 152.047 77.7191 152.471 77.3047 153.04C76.8903 153.61 76.667 154.296 76.6667 155H80ZM100 218.333C88.5073 218.333 77.4853 213.768 69.3587 205.641C61.2321 197.515 56.6667 186.493 56.6667 175H50C50 188.261 55.2678 200.979 64.6447 210.355C74.0215 219.732 86.7392 225 100 225V218.333ZM143.333 175C143.333 180.691 142.212 186.326 140.035 191.583C137.857 196.84 134.665 201.617 130.641 205.641C126.617 209.665 121.84 212.857 116.583 215.035C111.326 217.212 105.691 218.333 100 218.333V225C113.261 225 125.979 219.732 135.355 210.355C144.732 200.979 150 188.261 150 175H143.333ZM100 131.667C105.691 131.667 111.326 132.788 116.583 134.965C121.84 137.143 126.617 140.335 130.641 144.359C134.665 148.383 137.857 153.16 140.035 158.417C142.212 163.674 143.333 169.309 143.333 175H150C150 161.739 144.732 149.021 135.355 139.645C125.979 130.268 113.261 125 100 125V131.667ZM100 125C86.7392 125 74.0215 130.268 64.6447 139.645C55.2678 149.021 50 161.739 50 175H56.6667C56.6667 163.507 61.2321 152.485 69.3587 144.359C77.4853 136.232 88.5073 131.667 100 131.667V125ZM83.3333 205V155H76.6667V205H83.3333ZM77.3 156.953L120.633 216.953L126.033 213.047L82.7 153.047L77.3 156.953ZM116.667 151.667V191.667H123.333V151.667H116.667Z" fill="white"/>
<path d="M255.998 460.499C255.998 453.388 252.554 447.777 245.971 447.777C239.36 447.777 235.36 453.389 235.36 460.444C235.36 468.805 240.082 473.027 246.86 473.027C250.165 473.027 252.665 472.277 254.554 471.221V465.666C252.665 466.61 250.499 467.194 247.749 467.194C245.054 467.194 242.665 466.249 242.36 462.971H255.943C255.943 462.61 255.998 461.166 255.998 460.499ZM242.277 457.861C242.277 454.722 244.193 453.416 245.943 453.416C247.638 453.416 249.443 454.722 249.443 457.861H242.277ZM224.638 447.777C221.916 447.777 220.166 449.055 219.194 449.944L218.833 448.222H212.722V480.61L219.666 479.138L219.694 471.277C220.694 471.999 222.166 473.027 224.611 473.027C229.583 473.027 234.11 469.027 234.11 460.222C234.083 452.166 229.499 447.777 224.638 447.777H224.638ZM222.972 466.916C221.333 466.916 220.36 466.333 219.694 465.61L219.666 455.305C220.388 454.5 221.388 453.944 222.972 453.944C225.499 453.944 227.249 456.777 227.249 460.416C227.249 464.138 225.527 466.916 222.972 466.916ZM203.167 446.139L210.139 444.639V439L203.167 440.472V446.139ZM203.167 448.25H210.139V472.554H203.167V448.25ZM195.695 450.305L195.25 448.25H189.251V472.554H196.195V456.083C197.833 453.944 200.611 454.333 201.472 454.638V448.25C200.584 447.916 197.334 447.305 195.695 450.305ZM181.806 442.222L175.029 443.666L175.001 465.916C175.001 470.027 178.084 473.054 182.195 473.054C184.473 473.054 186.14 472.638 187.056 472.138V466.499C186.167 466.86 181.779 468.138 181.779 464.027V454.166H187.056V448.25H181.779L181.806 442.222ZM163.029 455.305C163.029 454.222 163.918 453.805 165.39 453.805C167.501 453.805 170.168 454.444 172.279 455.583V449.055C169.973 448.139 167.696 447.777 165.39 447.777C159.751 447.777 156.002 450.722 156.002 455.639C156.002 463.305 166.557 462.083 166.557 465.388C166.557 466.666 165.446 467.082 163.89 467.082C161.585 467.082 158.64 466.138 156.307 464.86V471.471C158.89 472.582 161.501 473.054 163.89 473.054C169.668 473.054 173.64 470.194 173.64 465.221C173.612 456.944 163.029 458.416 163.029 455.305Z" fill="#635BFF"/>
<path d="M443.969 41.4844H444.281L444.125 41.3281L455.063 30.3906V30.1563C445.844 22.0313 433.109 19.2188 421.312 22.7344C409.516 26.25 400.453 35.625 397.172 47.5C397.328 47.4219 397.562 47.3438 397.797 47.3438C401.859 44.6875 406.703 43.125 411.781 43.125C413.5 43.125 415.141 43.2813 416.781 43.5938C416.859 43.5156 416.937 43.5156 417.016 43.5156C424.047 35.7813 435.922 34.8438 444.047 41.4844H443.969Z" fill="#EA4535"/>
<path d="M465.453 47.3437C463.656 40.7031 459.906 34.6875 454.672 30.0781L443.5 41.1719C448.188 45 450.922 50.7813 450.766 56.7969V58.75C463.969 58.75 463.969 78.4375 450.766 78.4375H430.922V94.0625H430.844L430.922 94.2188H450.766C462.172 94.2969 472.25 86.9531 475.609 76.1719C478.969 65.3906 474.828 53.6719 465.453 47.3437Z" fill="#557EBF"/>
<path d="M411.469 94.2969H432.016V78.5156H411.469C409.984 78.5156 408.578 78.2031 407.25 77.6562L395.375 89.0625V89.2188C400.062 92.5781 405.687 94.375 411.547 94.375L411.469 94.2969Z" fill="#36A852"/>
<path d="M412.406 42.7344C400.766 42.8125 390.453 50 386.703 60.5469C382.953 71.1719 386.703 82.8125 395.922 89.6875L408.109 78.0469C401.391 75.1562 399.828 66.7188 404.984 61.7969C410.141 56.7969 418.891 58.3594 421.937 64.7656L434.125 53.125C428.969 46.6406 420.922 42.8125 412.406 42.8906V42.7344Z" fill="#F9BC15"/>
<path d="M85.3833 28.3833H48.6333C40.2481 28.3789 32.2045 31.7057 26.2721 37.6318C20.3397 43.558 17.0044 51.598 17 59.9833C16.9956 68.3686 20.3224 76.4121 26.2485 82.3445C32.1747 88.2769 40.2147 91.6122 48.6 91.6166H85.3833C93.7686 91.6166 101.81 88.2856 107.74 82.3563C113.669 76.4271 117 68.3852 117 60C117 51.6147 113.669 43.5729 107.74 37.6436C101.81 31.7143 93.7686 28.3833 85.3833 28.3833ZM84.5792 80.475H49.4417C44.0829 80.3669 38.9801 78.1622 35.2285 74.3341C31.4769 70.5061 29.3756 65.3598 29.3756 60C29.3756 54.6401 31.4769 49.4938 35.2285 45.6658C38.9801 41.8378 44.0829 39.6331 49.4417 39.525H84.5792C90.0095 39.525 95.2174 41.6822 99.0572 45.522C102.897 49.3618 105.054 54.5697 105.054 60C105.054 65.4303 102.897 70.6382 99.0572 74.478C95.2174 78.3178 90.0095 80.475 84.5792 80.475Z" fill="#EB2025"/>
<path d="M450.675 317.45C451.717 314.583 451.979 311.717 451.717 308.854C451.458 305.987 450.417 303.125 449.112 300.521C446.771 296.612 443.383 293.487 439.479 291.667C435.312 289.842 430.883 289.321 426.458 290.362C424.375 288.279 422.029 286.458 419.425 285.154C416.821 283.858 413.696 283.333 410.833 283.333C406.362 283.307 401.993 284.673 398.333 287.242C394.687 289.842 392.083 293.492 390.779 297.658C387.654 298.437 385.05 299.742 382.446 301.304C380.104 303.125 378.279 305.471 376.717 307.812C374.375 311.721 373.592 316.146 374.112 320.575C374.636 324.991 376.447 329.156 379.321 332.55C378.336 335.301 377.98 338.239 378.279 341.146C378.542 344.012 379.583 346.875 380.883 349.479C383.229 353.387 386.612 356.512 390.521 358.333C394.687 360.158 399.112 360.679 403.542 359.637C405.625 361.721 407.967 363.542 410.571 364.846C413.175 366.146 416.3 366.667 419.167 366.667C423.638 366.693 428.007 365.327 431.667 362.758C435.312 360.154 437.917 356.508 439.217 352.342C442.159 351.782 444.926 350.533 447.292 348.696C449.633 346.875 451.717 344.792 453.021 342.187C455.362 338.279 456.146 333.854 455.625 329.425C455.104 325 453.542 320.833 450.675 317.45ZM419.425 361.2C415.258 361.2 412.133 359.896 409.271 357.554C409.271 357.554 409.529 357.292 409.792 357.292L426.458 347.654C426.924 347.449 427.295 347.078 427.5 346.612C427.758 346.092 427.758 345.833 427.758 345.312V321.875L434.792 326.042V345.312C434.863 347.374 434.519 349.429 433.778 351.355C433.038 353.281 431.917 355.038 430.483 356.52C429.049 358.003 427.33 359.182 425.431 359.986C423.531 360.79 421.488 361.203 419.425 361.2ZM385.833 346.875C384.008 343.75 383.229 340.104 384.008 336.458C384.008 336.458 384.271 336.721 384.529 336.721L401.196 346.354C401.596 346.566 402.049 346.657 402.5 346.617C403.021 346.617 403.542 346.617 403.8 346.354L424.112 334.633V342.708L407.187 352.604C403.642 354.658 399.426 355.22 395.467 354.167C391.3 353.125 387.917 350.521 385.833 346.875ZM381.404 310.675C383.246 307.565 386.095 305.178 389.479 303.908V323.7C389.479 324.217 389.479 324.742 389.737 325C389.942 325.465 390.314 325.837 390.779 326.042L411.092 337.762L404.062 341.929L387.396 332.292C385.621 331.289 384.062 329.944 382.81 328.335C381.558 326.726 380.639 324.884 380.104 322.917C379.062 319.008 379.321 314.321 381.404 310.675ZM438.958 323.958L418.646 312.237L425.675 308.071L442.342 317.708C444.946 319.271 447.029 321.354 448.333 323.958C449.633 326.562 450.417 329.429 450.154 332.554C449.9 335.487 448.816 338.286 447.029 340.625C445.208 342.971 442.862 344.792 440 345.833V326.042C440 325.521 440 325 439.737 324.737C439.737 324.737 439.479 324.221 438.958 323.958ZM445.987 313.542C445.987 313.542 445.729 313.279 445.467 313.279L428.8 303.646C428.279 303.383 428.021 303.383 427.5 303.383C426.979 303.383 426.458 303.383 426.196 303.646L405.883 315.367V307.292L422.812 297.396C425.417 295.833 428.279 295.312 431.404 295.312C434.271 295.312 437.133 296.354 439.737 298.179C442.083 300 444.167 302.346 445.208 304.95C446.25 307.554 446.508 310.679 445.987 313.542ZM402.237 328.125L395.208 323.958V304.425C395.208 301.562 395.987 298.437 397.55 296.092C399.112 293.492 401.458 291.667 404.062 290.367C406.716 289.034 409.725 288.579 412.654 289.067C415.521 289.329 418.383 290.629 420.729 292.454C420.729 292.454 420.467 292.712 420.208 292.712L403.542 302.35C403.076 302.555 402.705 302.926 402.5 303.392C402.237 303.912 402.237 304.171 402.237 304.692V328.129V328.125ZM405.883 319.792L415 314.583L424.112 319.792V330.208L415 335.417L405.883 330.208V319.792Z" fill="#23A37D"/>
<defs>
<linearGradient id="paint0_linear_3_101" x1="200.523" y1="57.9268" x2="236.43" y2="72.9856" gradientUnits="userSpaceOnUse">
<stop stop-color="#249361"/>
<stop offset="1" stop-color="#3ECF8E"/>
</linearGradient>
<linearGradient id="paint1_linear_3_101" x1="184.604" y1="36.1305" x2="200.979" y2="66.9567" gradientUnits="userSpaceOnUse">
<stop/>
<stop offset="1" stop-opacity="0"/>
</linearGradient>
<linearGradient id="paint2_linear_3_101" x1="50.6332" y1="254" x2="50.6332" y2="354" gradientUnits="userSpaceOnUse">
<stop stop-color="#F402A8"/>
<stop offset="0.9998" stop-color="#6E07F8" stop-opacity="0.0815325"/>
<stop offset="0.9999" stop-color="#6907FB" stop-opacity="0.046875"/>
<stop offset="1" stop-color="#6207FF" stop-opacity="0"/>
</linearGradient>
<linearGradient id="paint3_linear_3_101" x1="-246.788" y1="2309.93" x2="8389.52" y2="7289.47" gradientUnits="userSpaceOnUse">
<stop stop-color="#2298BD"/>
<stop offset="1" stop-color="#0ED7B5"/>
</linearGradient>
<linearGradient id="paint4_linear_3_101" x1="325.002" y1="71.9999" x2="325.002" y2="172" gradientUnits="userSpaceOnUse">
<stop stop-color="#3E46F5"/>
<stop offset="0.515625" stop-color="#3D4BF5" stop-opacity="0.96875"/>
<stop offset="1" stop-color="#2BF5EA" stop-opacity="0"/>
</linearGradient>
<linearGradient id="paint5_linear_3_101" x1="1187.5" y1="1221.13" x2="6150.62" y2="6134.74" gradientUnits="userSpaceOnUse">
<stop stop-color="#387EB8"/>
<stop offset="1" stop-color="#366994"/>
</linearGradient>
<linearGradient id="paint6_linear_3_101" x1="1671.54" y1="1881.99" x2="7001.36" y2="6920.44" gradientUnits="userSpaceOnUse">
<stop stop-color="#FFE052"/>
<stop offset="1" stop-color="#FFC331"/>
</linearGradient>
</defs>
</svg>
